<svg width="20" height="20" viewBox="0 0 20 20" fill="none" xmlns="http://www.w3.org/2000/svg">
<path d="M12.4993 18.9583H7.49935C2.97435 18.9583 1.04102 17.025 1.04102 12.5V7.5C1.04102 2.975 2.97435 1.04167 7.49935 1.04167H12.4993C17.0243 1.04167 18.9577 2.975 18.9577 7.5V12.5C18.9577 17.025 17.0243 18.9583 12.4993 18.9583ZM7.49935 2.29167C3.65768 2.29167 2.29102 3.65833 2.29102 7.5V12.5C2.29102 16.3417 3.65768 17.7083 7.49935 17.7083H12.4993C16.341 17.7083 17.7077 16.3417 17.7077 12.5V7.5C17.7077 3.65833 16.341 2.29167 12.4993 2.29167H7.49935Z" fill="#667085"/>
<path d="M6.10875 12.7C5.97542 12.7 5.84209 12.6583 5.72542 12.5667C5.45042 12.3583 5.40042 11.9667 5.60875 11.6917L7.59209 9.11666C7.83375 8.80833 8.17542 8.60833 8.56709 8.55833C8.95042 8.50833 9.34209 8.61667 9.65042 8.85833L11.1754 10.0583C11.2338 10.1083 11.2921 10.1083 11.3338 10.1C11.3671 10.1 11.4254 10.0833 11.4754 10.0167L13.4004 7.53333C13.6088 7.25833 14.0088 7.20833 14.2754 7.425C14.5504 7.63333 14.6004 8.025 14.3838 8.3L12.4588 10.7833C12.2171 11.0917 11.8754 11.2917 11.4838 11.3333C11.0921 11.3833 10.7088 11.275 10.4004 11.0333L8.87542 9.83333C8.81709 9.78333 8.75042 9.78333 8.71709 9.79167C8.68375 9.79167 8.62542 9.80833 8.57542 9.875L6.59209 12.45C6.48375 12.6167 6.30042 12.7 6.10875 12.7Z" fill="#667085"/>
</svg>
