<svg width="20" height="20" viewBox="0 0 20 20" fill="none" xmlns="http://www.w3.org/2000/svg">
<path d="M12.0837 9.5H7.91699C7.57533 9.5 7.29199 9.21667 7.29199 8.875C7.29199 8.53333 7.57533 8.25 7.91699 8.25H12.0837C12.4253 8.25 12.7087 8.53333 12.7087 8.875C12.7087 9.21667 12.4253 9.5 12.0837 9.5Z" fill="#667085"/>
<path d="M10 11.6333C9.65833 11.6333 9.375 11.35 9.375 11.0083V6.84167C9.375 6.5 9.65833 6.21667 10 6.21667C10.3417 6.21667 10.625 6.5 10.625 6.84167V11.0083C10.625 11.35 10.3417 11.6333 10 11.6333Z" fill="#667085"/>
<path d="M15.8916 18.9583C15.4666 18.9583 14.9999 18.8333 14.5499 18.575L10.4833 16.3167C10.2416 16.1833 9.7666 16.1833 9.52494 16.3167L5.45827 18.575C4.63327 19.0333 3.7916 19.0833 3.14993 18.7C2.50827 18.325 2.1416 17.5667 2.1416 16.625V4.88333C2.1416 2.76666 3.8666 1.04166 5.98327 1.04166H14.0249C16.1416 1.04166 17.8666 2.76666 17.8666 4.88333V16.625C17.8666 17.5667 17.4999 18.325 16.8583 18.7C16.5666 18.875 16.2333 18.9583 15.8916 18.9583ZM9.99993 14.9667C10.3916 14.9667 10.7749 15.05 11.0833 15.225L15.1499 17.4833C15.5749 17.725 15.9666 17.775 16.2166 17.625C16.4666 17.475 16.6083 17.1167 16.6083 16.625V4.88333C16.6083 3.45833 15.4416 2.29166 14.0166 2.29166H5.98327C4.55827 2.29166 3.3916 3.45833 3.3916 4.88333V16.625C3.3916 17.1167 3.53327 17.4833 3.78327 17.625C4.03327 17.7667 4.42494 17.725 4.84994 17.4833L8.9166 15.225C9.22493 15.05 9.60827 14.9667 9.99993 14.9667Z" fill="#667085"/>
</svg>
