<svg width="20" height="20" viewBox="0 0 20 20" fill="none" xmlns="http://www.w3.org/2000/svg">
<path d="M14.4352 1H5.55556C3.59355 1 2 2.60276 2 4.55556V17.5343C2 19.1923 3.18826 19.8924 4.64364 19.091L9.13874 16.5947C9.61773 16.3276 10.3915 16.3276 10.8613 16.5947L15.3564 19.091C16.8117 19.9016 18 19.2015 18 17.5343V4.55556C17.9908 2.60276 16.3972 1 14.4352 1ZM15.5219 4.68452C14.6284 5.00691 8.64133 4.55556 7.70179 4.55556C6.76224 4.55556 8.12522 5.92804 7.23173 5.60564C5.85896 3.07254 6.67933 7.61371 6.80829 7.25447C6.94646 6.89523 7.34255 6.711 7.70179 6.83996C9.1848 7.37421 13.5783 7.06103 15.0613 6.52677C15.4206 6.39782 13.0901 5.2464 13.2191 5.60564C13.348 5.96488 15.8811 4.55556 15.5219 4.68452Z" fill="#6176F6"/>
</svg>
