<svg width="20" height="20" viewBox="0 0 20 20" fill="none" xmlns="http://www.w3.org/2000/svg">
<path d="M15.9905 19C15.558 19 15.0832 18.8744 14.6253 18.6149L10.4875 16.346C10.2416 16.2121 9.75834 16.2121 9.51245 16.346L5.37467 18.6149C4.53524 19.0753 3.67886 19.1256 3.02597 18.7405C2.37308 18.3637 2 17.6019 2 16.6558V4.85953C2 2.73302 3.75517 1 5.90885 1H14.0911C16.2448 1 18 2.73302 18 4.85953V16.6558C18 17.6019 17.6269 18.3637 16.974 18.7405C16.6773 18.9163 16.3381 19 15.9905 19ZM9.99576 14.9898C10.3943 14.9898 10.7843 15.0735 11.098 15.2493L15.2358 17.5181C15.6683 17.7609 16.0668 17.8112 16.3211 17.6605C16.5755 17.5098 16.7197 17.1498 16.7197 16.6558V4.85953C16.7197 3.42791 15.5326 2.25581 14.0827 2.25581H5.90885C4.45893 2.25581 3.27186 3.42791 3.27186 4.85953V16.6558C3.27186 17.1498 3.416 17.5181 3.67038 17.6605C3.92475 17.8028 4.32327 17.7609 4.7557 17.5181L8.89348 15.2493C9.2072 15.0735 9.59724 14.9898 9.99576 14.9898Z" fill="#475467"/>
</svg>
