<svg width="16" height="16" viewBox="0 0 16 16" fill="none" xmlns="http://www.w3.org/2000/svg">
<path d="M8.99967 6.16667H1.33301C1.05967 6.16667 0.833008 5.94001 0.833008 5.66667C0.833008 5.39334 1.05967 5.16667 1.33301 5.16667H8.99967C9.27301 5.16667 9.49967 5.39334 9.49967 5.66667C9.49967 5.94001 9.27301 6.16667 8.99967 6.16667Z" fill="#475467"/>
<path d="M5.33333 11.5H4C3.72667 11.5 3.5 11.2733 3.5 11C3.5 10.7267 3.72667 10.5 4 10.5H5.33333C5.60667 10.5 5.83333 10.7267 5.83333 11C5.83333 11.2733 5.60667 11.5 5.33333 11.5Z" fill="#475467"/>
<path d="M9.66667 11.5H7C6.72667 11.5 6.5 11.2733 6.5 11C6.5 10.7267 6.72667 10.5 7 10.5H9.66667C9.94 10.5 10.1667 10.7267 10.1667 11C10.1667 11.2733 9.94 11.5 9.66667 11.5Z" fill="#475467"/>
<path d="M11.7063 14.1667H4.29301C1.63967 14.1667 0.833008 13.3667 0.833008 10.74V5.25999C0.833008 2.63333 1.63967 1.83333 4.29301 1.83333H8.99967C9.27301 1.83333 9.49967 2.05999 9.49967 2.33333C9.49967 2.60666 9.27301 2.83333 8.99967 2.83333H4.29301C2.19967 2.83333 1.83301 3.19333 1.83301 5.25999V10.7333C1.83301 12.8 2.19967 13.16 4.29301 13.16H11.6997C13.793 13.16 14.1597 12.8 14.1597 10.7333V7.34666C14.1597 7.07333 14.3863 6.84666 14.6597 6.84666C14.933 6.84666 15.1597 7.07333 15.1597 7.34666V10.7333C15.1663 13.3667 14.3597 14.1667 11.7063 14.1667Z" fill="#475467"/>
<path d="M12.0003 5.50001C11.8736 5.50001 11.747 5.45334 11.647 5.35334L10.647 4.35334C10.4536 4.16001 10.4536 3.84001 10.647 3.64667C10.8403 3.45334 11.1603 3.45334 11.3536 3.64667L12.0003 4.29334L14.3136 1.98001C14.507 1.78667 14.827 1.78667 15.0203 1.98001C15.2136 2.17334 15.2136 2.49334 15.0203 2.68667L12.3536 5.35334C12.2536 5.45334 12.127 5.50001 12.0003 5.50001Z" fill="#475467"/>
</svg>
