<svg width="41" height="52" viewBox="0 0 41 52" fill="none" xmlns="http://www.w3.org/2000/svg">
<path d="M37.7079 36.9224C36.0334 34.851 33.6768 33.4029 31.0723 32.8448L26.0859 31.7763V28.885C28.7198 27.2588 30.5962 24.5195 31.0548 21.3281H31.6719C34.1919 21.3281 36.2422 19.2779 36.2422 16.7578C36.2422 14.2377 34.1919 12.1875 31.6719 12.1875H31.1641V5.58594C31.1641 2.50585 28.6582 0 25.5781 0H13.3906C9.19051 0 5.77344 3.41707 5.77344 7.61719C5.77344 9.49071 6.45462 11.2073 7.58064 12.5355C5.92517 13.2231 4.75781 14.8564 4.75781 16.7578C4.75781 19.2779 6.80805 21.3281 9.32812 21.3281H9.94522C10.4038 24.5195 12.2802 27.2588 14.9141 28.885V31.7763L9.92775 32.8448C7.32318 33.4029 4.96663 34.8511 3.29206 36.9224C1.6175 38.9938 0.695312 41.6015 0.695312 44.2652V50.4766C0.695312 51.3179 1.37741 52 2.21875 52H38.7812C39.6226 52 40.3047 51.3179 40.3047 50.4766V44.2652C40.3047 41.6015 39.3825 38.9938 37.7079 36.9224ZM31.1641 15.2344H31.6719C32.5119 15.2344 33.1953 15.9178 33.1953 16.7578C33.1953 17.5978 32.5119 18.2812 31.6719 18.2812H31.1641V15.2344ZM9.83594 18.2812H9.32812C8.4881 18.2812 7.80469 17.5978 7.80469 16.7578C7.80469 15.9178 8.4881 15.2344 9.32812 15.2344H9.83594V18.2812ZM11.8672 9.64844V11.9265C10.0938 11.2978 8.82031 9.60345 8.82031 7.61719C8.82031 5.09712 10.8706 3.04688 13.3906 3.04688H25.5781C26.9782 3.04688 28.1172 4.1859 28.1172 5.58594V8.125H13.3906C12.5493 8.125 11.8672 8.80709 11.8672 9.64844ZM12.8828 19.8047V15.2156C13.0509 15.2268 13.2198 15.2344 13.3906 15.2344C14.232 15.2344 14.9141 14.5523 14.9141 13.7109V11.1719H28.1172V19.8047C28.1172 24.0048 24.7001 27.4219 20.5 27.4219C16.2999 27.4219 12.8828 24.0048 12.8828 19.8047ZM15.162 48.9531H3.74219V44.2652C3.74219 40.2214 6.61214 36.6713 10.5661 35.824L15.4234 34.7831L16.9008 39.2154L15.162 48.9531ZM18.2571 48.9531L19.7443 40.625H21.2557L22.7429 48.9531H18.2571ZM18.8245 35.3514C19.3792 35.4392 19.9395 35.4843 20.5 35.4843C21.0605 35.4843 21.6208 35.4393 22.1755 35.3514L21.4332 37.5781H19.5667L18.8245 35.3514ZM23.0391 32.0031C21.402 32.584 19.598 32.584 17.9609 32.0031V30.1625C18.7751 30.3621 19.6252 30.4688 20.5 30.4688C21.3748 30.4688 22.2249 30.3621 23.0391 30.1625V32.0031ZM37.2578 48.9531H25.838L24.0992 39.2154L25.5766 34.7831L30.4339 35.824C34.3879 36.6713 37.2578 40.2213 37.2578 44.2652V48.9531Z" fill="#667085"/>
</svg>
