<svg width="20" height="20" viewBox="0 0 20 20" fill="none" xmlns="http://www.w3.org/2000/svg">
<path d="M12.4993 10.7917H6.66602C6.32435 10.7917 6.04102 10.5083 6.04102 10.1667C6.04102 9.82501 6.32435 9.54167 6.66602 9.54167H12.4993C12.841 9.54167 13.1243 9.82501 13.1243 10.1667C13.1243 10.5083 12.841 10.7917 12.4993 10.7917Z" fill="#667085"/>
<path d="M10.316 14.125H6.66602C6.32435 14.125 6.04102 13.8417 6.04102 13.5C6.04102 13.1583 6.32435 12.875 6.66602 12.875H10.316C10.6577 12.875 10.941 13.1583 10.941 13.5C10.941 13.8417 10.6577 14.125 10.316 14.125Z" fill="#667085"/>
<path d="M11.666 5.62501H8.33268C7.53268 5.62501 6.04102 5.62501 6.04102 3.33334C6.04102 1.04167 7.53268 1.04167 8.33268 1.04167H11.666C12.466 1.04167 13.9577 1.04167 13.9577 3.33334C13.9577 4.13334 13.9577 5.62501 11.666 5.62501ZM8.33268 2.29167C7.50768 2.29167 7.29102 2.29167 7.29102 3.33334C7.29102 4.37501 7.50768 4.37501 8.33268 4.37501H11.666C12.7077 4.37501 12.7077 4.15834 12.7077 3.33334C12.7077 2.29167 12.491 2.29167 11.666 2.29167H8.33268Z" fill="#667085"/>
<path d="M12.5 18.9583H7.5C2.81667 18.9583 1.875 16.8083 1.875 13.3333V8.33333C1.875 4.53333 3.25 2.90833 6.63333 2.73333C6.96667 2.71667 7.275 2.975 7.29167 3.325C7.30833 3.675 7.04167 3.95833 6.7 3.975C4.33333 4.10833 3.125 4.81667 3.125 8.33333V13.3333C3.125 16.4167 3.73333 17.7083 7.5 17.7083H12.5C16.2667 17.7083 16.875 16.4167 16.875 13.3333V8.33333C16.875 4.81667 15.6667 4.10833 13.3 3.975C12.9583 3.95833 12.6917 3.65833 12.7083 3.31667C12.725 2.975 13.025 2.70833 13.3667 2.725C16.75 2.90833 18.125 4.53333 18.125 8.325V13.325C18.125 16.8083 17.1833 18.9583 12.5 18.9583Z" fill="#667085"/>
</svg>
