<svg width="20" height="20" viewBox="0 0 20 20" fill="none" xmlns="http://www.w3.org/2000/svg">
<path d="M9.99935 18.9584C5.05768 18.9584 1.04102 14.9417 1.04102 10C1.04102 5.05836 5.05768 1.04169 9.99935 1.04169C14.941 1.04169 18.9577 5.05836 18.9577 10C18.9577 14.9417 14.941 18.9584 9.99935 18.9584ZM9.99935 2.29169C5.74935 2.29169 2.29102 5.75003 2.29102 10C2.29102 14.25 5.74935 17.7084 9.99935 17.7084C14.2493 17.7084 17.7077 14.25 17.7077 10C17.7077 5.75003 14.2493 2.29169 9.99935 2.29169Z" fill="#667085"/>
<path d="M13.0909 13.275C12.9826 13.275 12.8742 13.25 12.7742 13.1834L10.1909 11.6417C9.54922 11.2584 9.07422 10.4167 9.07422 9.67503V6.25836C9.07422 5.9167 9.35755 5.63336 9.69922 5.63336C10.0409 5.63336 10.3242 5.9167 10.3242 6.25836V9.67503C10.3242 9.97503 10.5742 10.4167 10.8326 10.5667L13.4159 12.1084C13.7159 12.2834 13.8076 12.6667 13.6326 12.9667C13.5076 13.1667 13.2992 13.275 13.0909 13.275Z" fill="#667085"/>
</svg>
