<svg width="20" height="20" viewBox="0 0 20 20" fill="none" xmlns="http://www.w3.org/2000/svg">
<path d="M8.42492 15.125H5.2666C4.92493 15.125 4.6416 14.8417 4.6416 14.5V10.2334C4.6416 9.3667 5.34992 8.65836 6.21659 8.65836H8.42492C8.76658 8.65836 9.04992 8.94169 9.04992 9.28336V14.4917C9.04992 14.8417 8.76658 15.125 8.42492 15.125ZM5.8916 13.875H7.79992V9.9167H6.21659C6.04159 9.9167 5.8916 10.0583 5.8916 10.2417V13.875V13.875Z" fill="#475467"/>
<path d="M11.5753 15.125H8.41699C8.07533 15.125 7.79199 14.8417 7.79199 14.5V6.44998C7.79199 5.58331 8.50031 4.87497 9.36698 4.87497H10.6337C11.5003 4.87497 12.2086 5.58331 12.2086 6.44998V14.5C12.2003 14.8417 11.9253 15.125 11.5753 15.125ZM9.05031 13.875H10.9586V6.44998C10.9586 6.27498 10.817 6.12497 10.6337 6.12497H9.36698C9.19198 6.12497 9.04199 6.26665 9.04199 6.44998V13.875H9.05031Z" fill="#475467"/>
<path d="M14.7335 15.125H11.5752C11.2335 15.125 10.9502 14.8417 10.9502 14.5V10.7083C10.9502 10.3666 11.2335 10.0833 11.5752 10.0833H13.7835C14.6502 10.0833 15.3585 10.7917 15.3585 11.6583V14.5C15.3585 14.8417 15.0835 15.125 14.7335 15.125ZM12.2002 13.875H14.1085V11.6583C14.1085 11.4833 13.9669 11.3333 13.7835 11.3333H12.2002V13.875V13.875Z" fill="#475467"/>
<path d="M12.5003 18.9583H7.50033C2.97533 18.9583 1.04199 17.025 1.04199 12.5V7.49999C1.04199 2.97499 2.97533 1.04166 7.50033 1.04166H12.5003C17.0253 1.04166 18.9587 2.97499 18.9587 7.49999V12.5C18.9587 17.025 17.0253 18.9583 12.5003 18.9583ZM7.50033 2.29166C3.65866 2.29166 2.29199 3.65832 2.29199 7.49999V12.5C2.29199 16.3417 3.65866 17.7083 7.50033 17.7083H12.5003C16.342 17.7083 17.7087 16.3417 17.7087 12.5V7.49999C17.7087 3.65832 16.342 2.29166 12.5003 2.29166H7.50033Z" fill="#475467"/>
</svg>
