<svg width="21" height="20" viewBox="0 0 21 20" fill="none" xmlns="http://www.w3.org/2000/svg">
<path d="M13.992 1.66666H7.00866C3.97533 1.66666 2.16699 3.47499 2.16699 6.50832V13.4833C2.16699 16.525 3.97533 18.3333 7.00866 18.3333H13.9837C17.017 18.3333 18.8253 16.525 18.8253 13.4917V6.50832C18.8337 3.47499 17.0253 1.66666 13.992 1.66666ZM8.09199 14.0833C8.09199 14.3167 7.90866 14.5 7.67533 14.5H5.35033C5.11699 14.5 4.93366 14.3167 4.93366 14.0833V10.2333C4.93366 9.70832 5.35866 9.28332 5.88366 9.28332H7.67533C7.90866 9.28332 8.09199 9.46666 8.09199 9.69999V14.0833ZM12.0753 14.0833C12.0753 14.3167 11.892 14.5 11.6587 14.5H9.33366C9.10033 14.5 8.91699 14.3167 8.91699 14.0833V6.44999C8.91699 5.92499 9.34199 5.49999 9.86699 5.49999H11.1337C11.6587 5.49999 12.0837 5.92499 12.0837 6.44999V14.0833H12.0753ZM16.067 14.0833C16.067 14.3167 15.8837 14.5 15.6503 14.5H13.3253C13.092 14.5 12.9087 14.3167 12.9087 14.0833V11.125C12.9087 10.8917 13.092 10.7083 13.3253 10.7083H15.117C15.642 10.7083 16.067 11.1333 16.067 11.6583V14.0833Z" fill="#6176F6"/>
</svg>
