<svg width="20" height="20" viewBox="0 0 20 20" fill="none" xmlns="http://www.w3.org/2000/svg">
<path d="M10.0084 14.1667C9.30006 14.1667 8.58339 13.9833 8.02506 13.625L3.00839 10.35C2.07506 9.74166 1.51672 8.71666 1.51672 7.6C1.51672 6.48333 2.07506 5.45833 3.00839 4.85L8.03339 1.58333C9.15006 0.858332 10.8917 0.858332 12.0001 1.59167L16.9917 4.86667C17.9167 5.475 18.4751 6.5 18.4751 7.60833C18.4751 8.71667 17.9167 9.74166 16.9917 10.35L12.0001 13.625C11.4417 13.9917 10.7251 14.1667 10.0084 14.1667ZM10.0084 2.29167C9.53339 2.29167 9.05839 2.4 8.71672 2.63333L3.70006 5.9C3.11672 6.28333 2.77506 6.9 2.77506 7.6C2.77506 8.3 3.10839 8.91666 3.70006 9.3L8.71672 12.575C9.40839 13.025 10.6251 13.025 11.3167 12.575L16.3084 9.3C16.8917 8.91666 17.2251 8.3 17.2251 7.6C17.2251 6.9 16.8917 6.28333 16.3084 5.9L11.3167 2.625C10.9667 2.40833 10.4917 2.29167 10.0084 2.29167Z" fill="#475467"/>
<path d="M9.99995 18.9583C9.63328 18.9583 9.25828 18.9083 8.95828 18.8083L6.29995 17.925C5.04161 17.5083 4.04995 16.1333 4.05828 14.8083L4.06661 10.9C4.06661 10.5583 4.34995 10.275 4.69161 10.275C5.03328 10.275 5.31661 10.5583 5.31661 10.9L5.30828 14.8083C5.30828 15.5917 5.95828 16.4917 6.69995 16.7417L9.35828 17.625C9.69161 17.7333 10.3083 17.7333 10.6416 17.625L13.2999 16.7417C14.0416 16.4917 14.6916 15.5917 14.6916 14.8167V10.95C14.6916 10.6083 14.9749 10.325 15.3166 10.325C15.6583 10.325 15.9416 10.6083 15.9416 10.95V14.8167C15.9416 16.1417 14.9583 17.5083 13.6999 17.9333L11.0416 18.8167C10.7416 18.9083 10.3666 18.9583 9.99995 18.9583Z" fill="#475467"/>
<path d="M17.8334 13.125C17.4917 13.125 17.2084 12.8417 17.2084 12.5V7.5C17.2084 7.15833 17.4917 6.875 17.8334 6.875C18.175 6.875 18.4584 7.15833 18.4584 7.5V12.5C18.4584 12.8417 18.175 13.125 17.8334 13.125Z" fill="#475467"/>
</svg>
