<svg width="21" height="20" viewBox="0 0 21 20" fill="none" xmlns="http://www.w3.org/2000/svg">
<path d="M13.0003 18.9583H8.00033C3.47533 18.9583 1.54199 17.025 1.54199 12.5V7.5C1.54199 2.975 3.47533 1.04167 8.00033 1.04167H12.167C12.5087 1.04167 12.792 1.325 12.792 1.66667C12.792 2.00833 12.5087 2.29167 12.167 2.29167H8.00033C4.15866 2.29167 2.79199 3.65833 2.79199 7.5V12.5C2.79199 16.3417 4.15866 17.7083 8.00033 17.7083H13.0003C16.842 17.7083 18.2087 16.3417 18.2087 12.5V8.33333C18.2087 7.99167 18.492 7.70833 18.8337 7.70833C19.1753 7.70833 19.4587 7.99167 19.4587 8.33333V12.5C19.4587 17.025 17.5253 18.9583 13.0003 18.9583Z" fill="#667085"/>
<path d="M18.8337 8.95833H15.5003C12.6503 8.95833 11.542 7.85 11.542 5V1.66667C11.542 1.41667 11.692 1.18333 11.9253 1.09167C12.1587 0.991666 12.4253 1.05 12.6087 1.225L19.2753 7.89167C19.4503 8.06667 19.5087 8.34167 19.4087 8.575C19.3087 8.80833 19.0837 8.95833 18.8337 8.95833ZM12.792 3.175V5C12.792 7.15 13.3503 7.70833 15.5003 7.70833H17.3253L12.792 3.175Z" fill="#667085"/>
<path d="M11.333 11.4583H6.33301C5.99134 11.4583 5.70801 11.175 5.70801 10.8333C5.70801 10.4917 5.99134 10.2083 6.33301 10.2083H11.333C11.6747 10.2083 11.958 10.4917 11.958 10.8333C11.958 11.175 11.6747 11.4583 11.333 11.4583Z" fill="#667085"/>
<path d="M9.66634 14.7917H6.33301C5.99134 14.7917 5.70801 14.5083 5.70801 14.1667C5.70801 13.825 5.99134 13.5417 6.33301 13.5417H9.66634C10.008 13.5417 10.2913 13.825 10.2913 14.1667C10.2913 14.5083 10.008 14.7917 9.66634 14.7917Z" fill="#667085"/>
</svg>
