<svg width="24" height="24" viewBox="0 0 24 24" fill="none" xmlns="http://www.w3.org/2000/svg">
<path d="M8.5 7C6.01868 7 4 9.02527 4 11.5148C4.22625 17.4959 12.7747 17.4943 13 11.5147C13 9.02527 10.9813 7 8.5 7V7ZM8.5 8.71444C9.5927 8.71444 10.5402 9.34799 10.9982 10.2679L9.36856 10.6283C8.90016 10.215 8.09984 10.2151 7.6315 10.6283L6.00187 10.2679C6.45985 9.34799 7.4073 8.71444 8.5 8.71444V8.71444ZM5.74577 11.9669L7.28181 12.3067C7.37044 12.4808 7.49491 12.6336 7.64557 12.7552V14.1803C6.66206 13.8622 5.91546 13.0107 5.74577 11.9669ZM9.35443 14.1803V12.7552C9.50509 12.6336 9.62961 12.4808 9.71819 12.3067L11.2542 11.9669C11.0845 13.0107 10.3379 13.8622 9.35443 14.1803Z" fill="#667085"/>
<path d="M17 21.5H7C2.59 21.5 1.25 20.16 1.25 15.75V7.75C1.25 3.34 2.59 2 7 2H17C21.41 2 22.75 3.34 22.75 7.75V15.75C22.75 20.16 21.41 21.5 17 21.5ZM7 3.5C3.42 3.5 2.75 4.18 2.75 7.75V15.75C2.75 19.32 3.42 20 7 20H17C20.58 20 21.25 19.32 21.25 15.75V7.75C21.25 4.18 20.58 3.5 17 3.5H7Z" fill="#667085"/>
<path d="M19 8.5H14C13.59 8.5 13.25 8.16 13.25 7.75C13.25 7.34 13.59 7 14 7H19C19.41 7 19.75 7.34 19.75 7.75C19.75 8.16 19.41 8.5 19 8.5Z" fill="#667085"/>
<path d="M19 12.5H15C14.59 12.5 14.25 12.16 14.25 11.75C14.25 11.34 14.59 11 15 11H19C19.41 11 19.75 11.34 19.75 11.75C19.75 12.16 19.41 12.5 19 12.5Z" fill="#667085"/>
<path d="M19 16.5H17C16.59 16.5 16.25 16.16 16.25 15.75C16.25 15.34 16.59 15 17 15H19C19.41 15 19.75 15.34 19.75 15.75C19.75 16.16 19.41 16.5 19 16.5Z" fill="#667085"/>
</svg>
