<svg width="42" height="42" viewBox="0 0 42 42" fill="none" xmlns="http://www.w3.org/2000/svg">
<rect x="0.5" y="0.5" width="41" height="41" rx="8.5" stroke="#EAECF0"/>
<path d="M15.6167 27.2667C15.1083 27.2667 14.6333 27.0917 14.2917 26.7667C13.8583 26.3583 13.65 25.7417 13.725 25.075L14.0333 22.375C14.0917 21.8667 14.4 21.1917 14.7583 20.825L21.6 13.5833C23.3083 11.775 25.0917 11.725 26.9 13.4333C28.7083 15.1417 28.7583 16.925 27.05 18.7333L20.2083 25.975C19.8583 26.35 19.2083 26.7 18.7 26.7833L16.0167 27.2417C15.875 27.25 15.75 27.2667 15.6167 27.2667ZM24.275 13.425C23.6333 13.425 23.075 13.825 22.5083 14.425L15.6667 21.675C15.5 21.85 15.3083 22.2667 15.275 22.5083L14.9667 25.2083C14.9333 25.4833 15 25.7083 15.15 25.85C15.3 25.9917 15.525 26.0417 15.8 26L18.4833 25.5417C18.725 25.5 19.125 25.2833 19.2917 25.1083L26.1333 17.8667C27.1667 16.7667 27.5417 15.75 26.0333 14.3333C25.3667 13.6917 24.7917 13.425 24.275 13.425Z" fill="#667085"/>
<path d="M25.45 20.125C25.4333 20.125 25.4083 20.125 25.3916 20.125C22.7916 19.8667 20.7 17.8917 20.3 15.3083C20.25 14.9667 20.4833 14.65 20.825 14.5917C21.1666 14.5417 21.4833 14.775 21.5416 15.1167C21.8583 17.1333 23.4916 18.6833 25.525 18.8833C25.8666 18.9167 26.1166 19.225 26.0833 19.5667C26.0416 19.8833 25.7666 20.125 25.45 20.125Z" fill="#667085"/>
<path d="M28.5 29.9583H13.5C13.1583 29.9583 12.875 29.675 12.875 29.3333C12.875 28.9917 13.1583 28.7083 13.5 28.7083H28.5C28.8417 28.7083 29.125 28.9917 29.125 29.3333C29.125 29.675 28.8417 29.9583 28.5 29.9583Z" fill="#667085"/>
</svg>
