<svg width="16" height="16" viewBox="0 0 16 16" fill="none" xmlns="http://www.w3.org/2000/svg">
<path d="M12.667 15.1667C12.3937 15.1667 12.167 14.94 12.167 14.6667V7.33333C12.167 7.05999 12.3937 6.83333 12.667 6.83333C12.9403 6.83333 13.167 7.05999 13.167 7.33333V14.6667C13.167 14.94 12.9403 15.1667 12.667 15.1667Z" fill="#292D32"/>
<path d="M12.667 5.16666C12.3937 5.16666 12.167 4.93999 12.167 4.66666V1.33333C12.167 1.05999 12.3937 0.833328 12.667 0.833328C12.9403 0.833328 13.167 1.05999 13.167 1.33333V4.66666C13.167 4.93999 12.9403 5.16666 12.667 5.16666Z" fill="#292D32"/>
<path d="M8 15.1667C7.72667 15.1667 7.5 14.94 7.5 14.6667V11.3333C7.5 11.06 7.72667 10.8333 8 10.8333C8.27333 10.8333 8.5 11.06 8.5 11.3333V14.6667C8.5 14.94 8.27333 15.1667 8 15.1667Z" fill="#292D32"/>
<path d="M8 9.16666C7.72667 9.16666 7.5 8.94 7.5 8.66666V1.33333C7.5 1.05999 7.72667 0.833328 8 0.833328C8.27333 0.833328 8.5 1.05999 8.5 1.33333V8.66666C8.5 8.94 8.27333 9.16666 8 9.16666Z" fill="#292D32"/>
<path d="M3.33301 15.1667C3.05967 15.1667 2.83301 14.94 2.83301 14.6667V7.33333C2.83301 7.05999 3.05967 6.83333 3.33301 6.83333C3.60634 6.83333 3.83301 7.05999 3.83301 7.33333V14.6667C3.83301 14.94 3.60634 15.1667 3.33301 15.1667Z" fill="#292D32"/>
<path d="M3.33301 5.16666C3.05967 5.16666 2.83301 4.93999 2.83301 4.66666V1.33333C2.83301 1.05999 3.05967 0.833328 3.33301 0.833328C3.60634 0.833328 3.83301 1.05999 3.83301 1.33333V4.66666C3.83301 4.93999 3.60634 5.16666 3.33301 5.16666Z" fill="#292D32"/>
<path d="M4.66667 7.83333H2C1.72667 7.83333 1.5 7.60666 1.5 7.33333C1.5 7.05999 1.72667 6.83333 2 6.83333H4.66667C4.94 6.83333 5.16667 7.05999 5.16667 7.33333C5.16667 7.60666 4.94 7.83333 4.66667 7.83333Z" fill="#292D32"/>
<path d="M13.9997 7.83333H11.333C11.0597 7.83333 10.833 7.60666 10.833 7.33333C10.833 7.05999 11.0597 6.83333 11.333 6.83333H13.9997C14.273 6.83333 14.4997 7.05999 14.4997 7.33333C14.4997 7.60666 14.273 7.83333 13.9997 7.83333Z" fill="#292D32"/>
<path d="M9.33366 9.16667H6.66699C6.39366 9.16667 6.16699 8.94001 6.16699 8.66667C6.16699 8.39334 6.39366 8.16667 6.66699 8.16667H9.33366C9.60699 8.16667 9.83366 8.39334 9.83366 8.66667C9.83366 8.94001 9.60699 9.16667 9.33366 9.16667Z" fill="#292D32"/>
</svg>
