<svg width="20" height="20" viewBox="0 0 20 20" fill="none" xmlns="http://www.w3.org/2000/svg">
<path d="M4.29199 18.9583C3.95033 18.9583 3.66699 18.675 3.66699 18.3333V1.66666C3.66699 1.325 3.95033 1.04166 4.29199 1.04166C4.63366 1.04166 4.91699 1.325 4.91699 1.66666V18.3333C4.91699 18.675 4.63366 18.9583 4.29199 18.9583Z" fill="#667085"/>
<path d="M13.6253 13.9583H4.29199C3.95033 13.9583 3.66699 13.675 3.66699 13.3333C3.66699 12.9917 3.95033 12.7083 4.29199 12.7083H13.6253C14.5337 12.7083 14.9587 12.4667 15.042 12.2583C15.1253 12.05 15.0003 11.5833 14.3503 10.9417L13.3503 9.94167C12.942 9.58334 12.692 9.04167 12.667 8.44167C12.642 7.80834 12.892 7.18334 13.3503 6.725L14.3503 5.725C14.967 5.10834 15.1587 4.60834 15.067 4.39167C14.9753 4.175 14.5003 3.95834 13.6253 3.95834H4.29199C3.94199 3.95834 3.66699 3.675 3.66699 3.33334C3.66699 2.99167 3.95033 2.70834 4.29199 2.70834H13.6253C15.4503 2.70834 16.0337 3.46667 16.2253 3.91667C16.4087 4.36667 16.5337 5.31667 15.2337 6.61667L14.2337 7.61667C14.0253 7.825 13.9087 8.11667 13.917 8.40834C13.9253 8.65834 14.0253 8.88334 14.2003 9.04167L15.2337 10.0667C16.5087 11.3417 16.3837 12.2917 16.2003 12.75C16.0087 13.1917 15.417 13.9583 13.6253 13.9583Z" fill="#667085"/>
</svg>
