<svg width="53" height="52" viewBox="0 0 53 52" fill="none" xmlns="http://www.w3.org/2000/svg">
<path d="M26.5 45.9062C27.3414 45.9062 28.0234 45.2242 28.0234 44.3828C28.0234 43.5414 27.3414 42.8594 26.5 42.8594C25.6586 42.8594 24.9766 43.5414 24.9766 44.3828C24.9766 45.2242 25.6586 45.9062 26.5 45.9062Z" fill="#6176F6"/>
<path d="M2.02344 52H50.9766C51.8179 52 52.5 51.3179 52.5 50.4766V48.9531C52.5 45.5585 49.6449 42.8594 46.3047 42.8594C45.7786 42.8594 45.2605 42.9287 44.7611 43.0597L46.2754 35.4375C46.3643 34.9902 46.2481 34.5266 45.9588 34.1741C45.6694 33.8215 45.2374 33.6172 44.7812 33.6172H43.2578V32.0938C43.2578 27.8936 39.8407 24.4766 35.6406 24.4766H32.5938C31.7537 24.4766 31.0703 23.7931 31.0703 22.9531V22.949C32.9192 21.5579 34.1172 19.346 34.1172 16.8594C34.1172 15.8636 34.1172 8.6903 34.1172 7.61719C34.1172 5.09712 32.0669 3.04688 29.5469 3.04688H24.9766C24.1365 3.04688 23.4531 2.36346 23.4531 1.52344C23.4531 0.682094 22.771 0 21.9297 0H20.4062C17.0462 0 14.3125 2.73366 14.3125 6.09375C14.3125 8.92795 16.2575 11.3165 18.8828 11.9946V16.8594C18.8828 19.346 20.0808 21.5579 21.9297 22.949V22.9531C21.9297 23.7931 21.2463 24.4766 20.4062 24.4766H17.3594C13.1593 24.4766 9.74219 27.8936 9.74219 32.0938V33.6172H8.21875C7.76263 33.6172 7.33059 33.8215 7.04123 34.1741C6.75188 34.5266 6.63569 34.9902 6.72456 35.4375L8.23886 43.0597C7.73948 42.9287 7.22141 42.8594 6.69531 42.8594C3.35441 42.8594 0.5 45.5593 0.5 48.9531V50.4766C0.5 51.3179 1.18209 52 2.02344 52ZM42.9254 36.6641L40.4838 48.9531H12.5162L10.0746 36.6641H42.9254ZM46.3047 45.9062C48.0113 45.9062 49.4531 47.3015 49.4531 48.9531H43.5902L43.9831 46.9759C44.6558 46.2539 45.4202 45.9062 46.3047 45.9062ZM26.5 21.4297C23.9799 21.4297 21.9297 19.3794 21.9297 16.8594V12.1875H31.0703V16.8594C31.0703 19.3794 29.0201 21.4297 26.5 21.4297ZM17.3594 6.09375C17.3594 4.4137 18.7262 3.04688 20.4062 3.04688H20.6673C21.296 4.82026 22.9904 6.09375 24.9766 6.09375H29.5469C30.3869 6.09375 31.0703 6.77716 31.0703 7.61719V9.14062H20.4062C18.7262 9.14062 17.3594 7.7738 17.3594 6.09375ZM26.5 24.4766C27.0916 24.4766 27.6669 24.4066 28.2201 24.2783C28.625 25.6123 29.6248 26.6891 30.9092 27.2004C30.3806 29.1398 28.6047 30.5703 26.5 30.5703C24.3953 30.5703 22.6194 29.1398 22.0908 27.2004C23.3752 26.6891 24.375 25.6123 24.7799 24.2783C25.3331 24.4066 25.9084 24.4766 26.5 24.4766ZM12.7891 32.0938C12.7891 29.5737 14.8393 27.5234 17.3594 27.5234H19.0361C19.7438 30.9961 22.8215 33.6172 26.5 33.6172C30.1785 33.6172 33.2561 30.9961 33.9639 27.5234H35.6406C38.1607 27.5234 40.2109 29.5737 40.2109 32.0938V33.6172H12.7891V32.0938ZM6.69531 45.9062C7.57098 45.9062 8.33717 46.2468 9.01693 46.9759L9.40977 48.9531H3.54688C3.54688 47.3015 4.98866 45.9062 6.69531 45.9062Z" fill="#6176F6"/>
</svg>
