<svg width="20" height="20" viewBox="0 0 20 20" fill="none" xmlns="http://www.w3.org/2000/svg">
<path d="M17.5749 5.81667C16.8665 5.03334 15.6832 4.64167 13.9665 4.64167H13.7665V4.60834C13.7665 3.20834 13.7665 1.47501 10.6332 1.47501H9.36653C6.2332 1.47501 6.2332 3.21667 6.2332 4.60834V4.65001H6.0332C4.3082 4.65001 3.1332 5.04167 2.42487 5.82501C1.59987 6.74167 1.62487 7.97501 1.7082 8.81667L1.71654 8.87501L1.77732 9.51329C1.79159 9.66306 1.87234 9.79844 1.99834 9.88066C2.20039 10.0125 2.51013 10.2113 2.69987 10.3167C2.81654 10.3917 2.94154 10.4583 3.06654 10.525C4.49154 11.3083 6.0582 11.8333 7.64987 12.0917C7.72487 12.875 8.06653 13.7917 9.89153 13.7917C11.7165 13.7917 12.0749 12.8833 12.1332 12.075C13.8332 11.8 15.4749 11.2083 16.9582 10.3417C17.0082 10.3167 17.0415 10.2917 17.0832 10.2667C17.4034 10.0857 17.7352 9.864 18.0398 9.64533C18.153 9.56406 18.2253 9.43792 18.2407 9.29941L18.2499 9.21667L18.2915 8.82501C18.2999 8.77501 18.2999 8.73334 18.3082 8.67501C18.3749 7.83334 18.3582 6.68334 17.5749 5.81667ZM10.9082 11.525C10.9082 12.4083 10.9082 12.5417 9.8832 12.5417C8.8582 12.5417 8.8582 12.3833 8.8582 11.5333V10.4833H10.9082V11.525ZM7.42487 4.64167V4.60834C7.42487 3.19167 7.42487 2.66667 9.36653 2.66667H10.6332C12.5749 2.66667 12.5749 3.20001 12.5749 4.60834V4.65001H7.42487V4.64167Z" fill="#6176F6"/>
<path d="M17.2599 11.5091C17.614 11.3418 18.0212 11.6223 17.9858 12.0123L17.7002 15.1583C17.5252 16.825 16.8419 18.525 13.1752 18.525H6.82519C3.15853 18.525 2.4752 16.825 2.3002 15.1667L2.02948 12.1888C1.99444 11.8034 2.39276 11.5233 2.7458 11.682C3.705 12.1131 5.317 12.8064 6.35299 13.0854C6.51699 13.1296 6.65014 13.2476 6.72454 13.4003C7.23875 14.4556 8.32794 15.0167 9.89186 15.0167C11.4404 15.0167 12.5429 14.434 13.059 13.3755C13.1335 13.2227 13.2666 13.1048 13.4307 13.0604C14.5325 12.7619 16.2538 11.9846 17.2599 11.5091Z" fill="#6176F6"/>
</svg>
