<svg width="20" height="20" viewBox="0 0 20 20" fill="none" xmlns="http://www.w3.org/2000/svg">
<path d="M12.6991 18.5583H12.5908C8.89078 18.5583 7.10745 17.1 6.79912 13.8333C6.76578 13.4917 7.01578 13.1833 7.36578 13.15C7.69912 13.1167 8.01578 13.375 8.04912 13.7167C8.29078 16.3333 9.52412 17.3083 12.5991 17.3083H12.7075C16.0991 17.3083 17.2991 16.1083 17.2991 12.7167V7.28333C17.2991 3.89167 16.0991 2.69167 12.7075 2.69167H12.5991C9.50745 2.69167 8.27412 3.68333 8.04912 6.35C8.00745 6.69167 7.71578 6.95 7.36578 6.91667C7.01578 6.89167 6.76578 6.58333 6.79078 6.24167C7.07412 2.925 8.86578 1.44167 12.5908 1.44167H12.6991C16.7908 1.44167 18.5408 3.19167 18.5408 7.28333V12.7167C18.5408 16.8083 16.7908 18.5583 12.6991 18.5583Z" fill="#667085"/>
<path d="M12.5009 10.625H3.01758C2.67591 10.625 2.39258 10.3417 2.39258 10C2.39258 9.65833 2.67591 9.375 3.01758 9.375H12.5009C12.8426 9.375 13.1259 9.65833 13.1259 10C13.1259 10.3417 12.8426 10.625 12.5009 10.625Z" fill="#667085"/>
<path d="M4.87552 13.4167C4.71719 13.4167 4.55885 13.3583 4.43385 13.2333L1.64219 10.4417C1.40052 10.2 1.40052 9.8 1.64219 9.55833L4.43385 6.76667C4.67552 6.525 5.07552 6.525 5.31719 6.76667C5.55885 7.00833 5.55885 7.40833 5.31719 7.65L2.96719 10L5.31719 12.35C5.55885 12.5917 5.55885 12.9917 5.31719 13.2333C5.20052 13.3583 5.03385 13.4167 4.87552 13.4167Z" fill="#667085"/>
</svg>
