<svg width="20" height="20" viewBox="0 0 20 20" fill="none" xmlns="http://www.w3.org/2000/svg">
<path d="M15.3913 14.025L15.7163 16.6583C15.7997 17.35 15.058 17.8333 14.4663 17.475L11.583 15.7583C11.383 15.6417 11.333 15.3917 11.4413 15.1917C11.858 14.425 12.083 13.5583 12.083 12.6917C12.083 9.64166 9.46633 7.15832 6.24967 7.15832C5.59133 7.15832 4.94967 7.25832 4.34967 7.45832C4.04133 7.55832 3.74133 7.27499 3.81633 6.95832C4.57467 3.92499 7.49133 1.66666 10.9747 1.66666C15.0413 1.66666 18.333 4.74166 18.333 8.53332C18.333 10.7833 17.1747 12.775 15.3913 14.025Z" fill="#6176F6"/>
<path d="M10.8337 12.6917C10.8337 13.6833 10.467 14.6 9.85032 15.325C9.02532 16.325 7.71699 16.9667 6.25033 16.9667L4.07533 18.2583C3.70866 18.4833 3.24199 18.175 3.29199 17.75L3.50033 16.1083C2.38366 15.3333 1.66699 14.0917 1.66699 12.6917C1.66699 11.225 2.45033 9.93332 3.65033 9.16666C4.39199 8.68333 5.28366 8.40833 6.25033 8.40833C8.78366 8.40833 10.8337 10.325 10.8337 12.6917Z" fill="#6176F6"/>
</svg>
