<svg width="24" height="24" viewBox="0 0 24 24" fill="none" xmlns="http://www.w3.org/2000/svg">
<path d="M13.05 16.25H11.17C9.84001 16.25 8.75 15.13 8.75 13.75C8.75 13.34 9.09 13 9.5 13C9.91 13 10.25 13.34 10.25 13.75C10.25 14.3 10.66 14.75 11.17 14.75H13.05C13.44 14.75 13.75 14.4 13.75 13.97C13.75 13.43 13.6 13.35 13.26 13.23L10.25 12.18C9.61 11.95 8.75 11.49 8.75 10.02C8.75 8.76999 9.74001 7.73999 10.95 7.73999H12.83C14.16 7.73999 15.25 8.85999 15.25 10.24C15.25 10.65 14.91 10.99 14.5 10.99C14.09 10.99 13.75 10.65 13.75 10.24C13.75 9.68999 13.34 9.23999 12.83 9.23999H10.95C10.56 9.23999 10.25 9.58999 10.25 10.02C10.25 10.56 10.4 10.64 10.74 10.76L13.75 11.81C14.39 12.04 15.25 12.5 15.25 13.97C15.25 15.23 14.26 16.25 13.05 16.25Z" fill="#667085"/>
<path d="M12 17.25C11.59 17.25 11.25 16.91 11.25 16.5V7.5C11.25 7.09 11.59 6.75 12 6.75C12.41 6.75 12.75 7.09 12.75 7.5V16.5C12.75 16.91 12.41 17.25 12 17.25Z" fill="#667085"/>
<path d="M12 22.75C6.07 22.75 1.25 17.93 1.25 12C1.25 6.07 6.07 1.25 12 1.25C12.41 1.25 12.75 1.59 12.75 2C12.75 2.41 12.41 2.75 12 2.75C6.9 2.75 2.75 6.9 2.75 12C2.75 17.1 6.9 21.25 12 21.25C17.1 21.25 21.25 17.1 21.25 12C21.25 11.59 21.59 11.25 22 11.25C22.41 11.25 22.75 11.59 22.75 12C22.75 17.93 17.93 22.75 12 22.75Z" fill="#667085"/>
<path d="M22 6.75C21.59 6.75 21.25 6.41 21.25 6V2.75H18C17.59 2.75 17.25 2.41 17.25 2C17.25 1.59 17.59 1.25 18 1.25H22C22.41 1.25 22.75 1.59 22.75 2V6C22.75 6.41 22.41 6.75 22 6.75Z" fill="#667085"/>
<path d="M17.0014 7.75006C16.8114 7.75006 16.6214 7.68006 16.4714 7.53006C16.1814 7.24006 16.1814 6.76006 16.4714 6.47006L21.4714 1.47006C21.7614 1.18006 22.2414 1.18006 22.5314 1.47006C22.8214 1.76006 22.8214 2.24006 22.5314 2.53006L17.5314 7.53006C17.3814 7.68006 17.1914 7.75006 17.0014 7.75006Z" fill="#667085"/>
</svg>
