<svg width="20" height="20" viewBox="0 0 20 20" fill="none" xmlns="http://www.w3.org/2000/svg">
<path d="M10.8743 13.5417H9.30769C8.19936 13.5417 7.29102 12.6083 7.29102 11.4583C7.29102 11.1167 7.57435 10.8333 7.91602 10.8333C8.25768 10.8333 8.54102 11.1167 8.54102 11.4583C8.54102 11.9167 8.88269 12.2917 9.30769 12.2917H10.8743C11.1993 12.2917 11.4577 12 11.4577 11.6417C11.4577 11.1917 11.3327 11.125 11.0494 11.025L8.54102 10.15C8.00768 9.96665 7.29102 9.575 7.29102 8.35C7.29102 7.30833 8.11603 6.45 9.12436 6.45H10.691C11.7993 6.45 12.7077 7.38333 12.7077 8.53333C12.7077 8.875 12.4243 9.15833 12.0827 9.15833C11.741 9.15833 11.4577 8.875 11.4577 8.53333C11.4577 8.075 11.116 7.7 10.691 7.7H9.12436C8.79936 7.7 8.54102 7.99166 8.54102 8.35C8.54102 8.8 8.66601 8.86665 8.94934 8.96665L11.4577 9.84166C11.991 10.025 12.7077 10.4167 12.7077 11.6417C12.7077 12.6917 11.8827 13.5417 10.8743 13.5417Z" fill="#667085"/>
<path d="M10 14.375C9.65833 14.375 9.375 14.0917 9.375 13.75V6.25C9.375 5.90833 9.65833 5.625 10 5.625C10.3417 5.625 10.625 5.90833 10.625 6.25V13.75C10.625 14.0917 10.3417 14.375 10 14.375Z" fill="#667085"/>
<path d="M9.99935 18.9583C5.05768 18.9583 1.04102 14.9417 1.04102 10C1.04102 5.05834 5.05768 1.04167 9.99935 1.04167C10.341 1.04167 10.6243 1.32501 10.6243 1.66667C10.6243 2.00834 10.341 2.29167 9.99935 2.29167C5.74935 2.29167 2.29102 5.75001 2.29102 10C2.29102 14.25 5.74935 17.7083 9.99935 17.7083C14.2493 17.7083 17.7077 14.25 17.7077 10C17.7077 9.65834 17.991 9.37501 18.3327 9.37501C18.6743 9.37501 18.9577 9.65834 18.9577 10C18.9577 14.9417 14.941 18.9583 9.99935 18.9583Z" fill="#667085"/>
<path d="M17.4993 6.45833H14.166C13.8243 6.45833 13.541 6.175 13.541 5.83333V2.5C13.541 2.15833 13.8243 1.875 14.166 1.875C14.5077 1.875 14.791 2.15833 14.791 2.5V5.20833H17.4993C17.841 5.20833 18.1243 5.49167 18.1243 5.83333C18.1243 6.175 17.841 6.45833 17.4993 6.45833Z" fill="#667085"/>
<path d="M14.1659 6.45833C14.0076 6.45833 13.8492 6.39999 13.7242 6.27499C13.4826 6.03333 13.4826 5.63333 13.7242 5.39166L17.8909 1.225C18.1326 0.98333 18.5326 0.98333 18.7742 1.225C19.0159 1.46666 19.0159 1.86666 18.7742 2.10833L14.6076 6.27499C14.4826 6.39999 14.3242 6.45833 14.1659 6.45833Z" fill="#667085"/>
</svg>
