<svg width="20" height="20" viewBox="0 0 20 20" fill="none" xmlns="http://www.w3.org/2000/svg">
<path d="M10.0162 17.1083C8.07457 17.1083 6.1329 16.8 4.29123 16.1833C3.59123 15.9417 3.0579 15.45 2.82457 14.8083C2.5829 14.1667 2.66623 13.4583 3.04957 12.825L4.0079 11.2333C4.2079 10.9 4.39123 10.2333 4.39123 9.84165V7.43332C4.39123 4.33332 6.91623 1.80832 10.0162 1.80832C13.1162 1.80832 15.6412 4.33332 15.6412 7.43332V9.84165C15.6412 10.225 15.8246 10.9 16.0246 11.2417L16.9746 12.825C17.3329 13.425 17.3996 14.15 17.1579 14.8083C16.9162 15.4667 16.3912 15.9667 15.7329 16.1833C13.8996 16.8 11.9579 17.1083 10.0162 17.1083ZM10.0162 3.05832C7.6079 3.05832 5.64123 5.01665 5.64123 7.43332V9.84165C5.64123 10.45 5.39123 11.35 5.0829 11.875L4.12457 13.4667C3.94123 13.775 3.89123 14.1 3.99957 14.375C4.09957 14.6583 4.34957 14.875 4.69123 14.9917C8.17457 16.1583 11.8662 16.1583 15.3496 14.9917C15.6496 14.8917 15.8829 14.6667 15.9912 14.3667C16.0996 14.0667 16.0746 13.7417 15.9079 13.4667L14.9496 11.875C14.6329 11.3333 14.3912 10.4417 14.3912 9.83332V7.43332C14.3912 5.01665 12.4329 3.05832 10.0162 3.05832Z" fill="#475467"/>
<path d="M11.5668 3.28334C11.5085 3.28334 11.4502 3.275 11.3918 3.25834C11.1502 3.19167 10.9168 3.14167 10.6918 3.10834C9.98351 3.01667 9.30018 3.06667 8.65851 3.25834C8.42518 3.33334 8.17518 3.25834 8.01684 3.08334C7.85851 2.90834 7.80851 2.65834 7.90018 2.43334C8.24184 1.55834 9.07518 0.983337 10.0252 0.983337C10.9752 0.983337 11.8085 1.55 12.1502 2.43334C12.2335 2.65834 12.1918 2.90834 12.0335 3.08334C11.9085 3.21667 11.7335 3.28334 11.5668 3.28334Z" fill="#475467"/>
<path d="M10.0166 19.0083C9.1916 19.0083 8.3916 18.675 7.80827 18.0917C7.22493 17.5083 6.8916 16.7083 6.8916 15.8833H8.1416C8.1416 16.375 8.3416 16.8583 8.6916 17.2083C9.0416 17.5583 9.52494 17.7583 10.0166 17.7583C11.0499 17.7583 11.8916 16.9167 11.8916 15.8833H13.1416C13.1416 17.6083 11.7416 19.0083 10.0166 19.0083Z" fill="#475467"/>
</svg>
