<svg width="21" height="20" viewBox="0 0 21 20" fill="none" xmlns="http://www.w3.org/2000/svg">
<path d="M16.6163 12.075L15.783 10.6917C15.608 10.3833 15.4496 9.79999 15.4496 9.45832V7.34999C15.4496 5.39166 14.2996 3.69999 12.6413 2.90832C12.208 2.14166 11.408 1.66666 10.4913 1.66666C9.58296 1.66666 8.76629 2.15832 8.33296 2.93332C6.70796 3.74166 5.58296 5.41666 5.58296 7.34999V9.45832C5.58296 9.79999 5.42463 10.3833 5.24963 10.6833L4.40796 12.075C4.07463 12.6333 3.99963 13.25 4.20796 13.8167C4.40796 14.375 4.88296 14.8083 5.49963 15.0167C7.11629 15.5667 8.81629 15.8333 10.5163 15.8333C12.2163 15.8333 13.9163 15.5667 15.533 15.025C16.1163 14.8333 16.5663 14.3917 16.783 13.8167C16.9996 13.2417 16.9413 12.6083 16.6163 12.075Z" fill="#6176F6"/>
<path d="M12.8587 16.675C12.5087 17.6417 11.5837 18.3333 10.5004 18.3333C9.84206 18.3333 9.19206 18.0667 8.73372 17.5917C8.46706 17.3417 8.26706 17.0083 8.15039 16.6667C8.25872 16.6833 8.36706 16.6917 8.48372 16.7083C8.67539 16.7333 8.87539 16.7583 9.07539 16.775C9.55039 16.8167 10.0337 16.8417 10.5171 16.8417C10.9921 16.8417 11.4671 16.8167 11.9337 16.775C12.1087 16.7583 12.2837 16.75 12.4504 16.725C12.5837 16.7083 12.7171 16.6917 12.8587 16.675Z" fill="#6176F6"/>
</svg>
