<svg width="16" height="20" viewBox="0 0 16 20" fill="none" xmlns="http://www.w3.org/2000/svg">
<path d="M13.4242 2.51285C13.3654 1.8027 13.0215 1.13121 12.4513 0.647308C11.7607 0.0612924 10.8491 -0.14277 10.0108 0.100745L1.06795 2.417C0.814633 2.48008 0.626469 2.72321 0.62893 2.98422V19.414C0.62893 19.7377 0.891274 20 1.21491 20H12.6424C14.1489 20 15.3746 18.7744 15.3746 17.2679V5.13039C15.3745 3.89559 14.5508 2.85 13.4242 2.51285V2.51285ZM10.3323 1.22774C10.8 1.08989 11.296 1.20399 11.693 1.5409C11.9649 1.77168 12.1474 2.07352 12.2225 2.39828H5.81424C5.81424 2.39828 10.326 1.22957 10.3323 1.22774V1.22774ZM14.2026 17.2679C14.2026 18.1282 13.5026 18.828 12.6424 18.828H1.80084V3.5702H12.6424C13.5027 3.5702 14.2026 4.27008 14.2026 5.13039V17.2679Z" fill="#667085"/>
<path d="M8.00133 5.36832C5.27156 5.36832 3.05078 7.58914 3.05078 10.3189C3.05078 13.0486 5.2716 15.2694 8.00133 15.2694C10.7311 15.2694 12.9519 13.0486 12.9519 10.3189C12.9519 7.58918 10.7311 5.36832 8.00133 5.36832V5.36832ZM11.7345 9.73293H10.1611C10.0864 8.79464 9.83457 7.84277 9.40508 6.81082C10.621 7.29914 11.5263 8.40195 11.7345 9.73293ZM8.00133 14.0975C7.99645 14.0975 7.99156 14.0974 7.98668 14.0973C7.43023 12.9324 7.10836 11.9081 7.02129 10.9048H8.97937C8.88891 11.906 8.56504 12.9307 8.00777 14.0975C8.00563 14.0975 8.00348 14.0975 8.00133 14.0975ZM7.02652 9.73293C7.12191 8.73707 7.44816 7.71601 8.00539 6.55355C8.56191 7.71429 8.88617 8.735 8.97824 9.73293H7.02652ZM6.60715 6.80691C6.17547 7.84172 5.92117 8.79496 5.84355 9.73293H4.26824C4.47687 8.39847 5.38637 7.29328 6.60715 6.80691ZM4.26824 10.9049H5.83887C5.90906 11.842 6.15613 12.7916 6.58016 13.8199C5.37301 13.328 4.47531 12.2294 4.26824 10.9049V10.9049ZM9.41309 13.8237C9.83941 12.7925 10.0889 11.8416 10.162 10.9048H11.7345C11.5268 12.2329 10.625 13.3338 9.41309 13.8237Z" fill="#667085"/>
<path d="M5.82508 16.4802H3.79887C3.47523 16.4802 3.21289 16.7425 3.21289 17.0662C3.21289 17.3898 3.47523 17.6521 3.79887 17.6521H5.82508C6.14871 17.6521 6.41105 17.3898 6.41105 17.0662C6.41105 16.7425 6.14867 16.4802 5.82508 16.4802Z" fill="#667085"/>
<path d="M12.3686 16.4802H8.17387C7.85023 16.4802 7.58789 16.7425 7.58789 17.0662C7.58789 17.3898 7.85023 17.6521 8.17387 17.6521H12.3686C12.6922 17.6521 12.9546 17.3898 12.9546 17.0662C12.9546 16.7425 12.6922 16.4802 12.3686 16.4802Z" fill="#667085"/>
</svg>
