<svg width="24" height="24" viewBox="0 0 24 24" fill="none" xmlns="http://www.w3.org/2000/svg">
<g clip-path="url(#clip0_11_1921)">
<path d="M23.2969 0H20.4844C20.0961 0 19.7812 0.314812 19.7812 0.703125V1.40625H13.9884C13.6982 0.587906 12.9166 0 12 0C11.0834 0 10.3018 0.587906 10.0116 1.40625H4.21875V0.703125C4.21875 0.314812 3.90394 0 3.51562 0H0.703125C0.314812 0 0 0.314812 0 0.703125V3.51562C0 3.90394 0.314812 4.21875 0.703125 4.21875H3.51562C3.90394 4.21875 4.21875 3.90394 4.21875 3.51562V2.80312H7.14267C4.60598 4.40972 3.06398 7.12383 2.8785 10.0051C2.05022 10.2899 1.45312 11.0763 1.45312 12C1.45312 13.1631 2.39939 14.1094 3.5625 14.1094C4.72561 14.1094 5.67188 13.1631 5.67188 12C5.67188 11.0916 5.09461 10.3154 4.28766 10.0191C4.53731 6.70748 6.92194 3.85528 10.1108 3.04603C10.4564 3.74034 11.1732 4.21875 12 4.21875C12.8268 4.21875 13.5436 3.74034 13.8892 3.04608C17.0781 3.85533 19.4627 6.70753 19.7123 10.0191C18.9054 10.3154 18.3281 11.0916 18.3281 12C18.3281 13.1631 19.2744 14.1094 20.4375 14.1094C21.6006 14.1094 22.5469 13.1631 22.5469 12C22.5469 11.0763 21.9498 10.2899 21.1215 10.0051C20.9356 7.11806 19.389 4.41595 16.8573 2.8125H19.7812V3.51562C19.7812 3.90394 20.0961 4.21875 20.4844 4.21875H23.2969C23.6852 4.21875 24 3.90394 24 3.51562V0.703125C24 0.314812 23.6852 0 23.2969 0ZM2.8125 2.8125H1.40625V1.40625H2.8125V2.8125ZM3.5625 12.7031C3.1748 12.7031 2.85938 12.3877 2.85938 12C2.85938 11.6123 3.1748 11.2969 3.5625 11.2969C3.9502 11.2969 4.26562 11.6123 4.26562 12C4.26562 12.3877 3.9502 12.7031 3.5625 12.7031ZM12 2.8125C11.6123 2.8125 11.2969 2.49708 11.2969 2.10938C11.2969 1.72167 11.6123 1.40625 12 1.40625C12.3877 1.40625 12.7031 1.72167 12.7031 2.10938C12.7031 2.49708 12.3877 2.8125 12 2.8125ZM20.4375 11.2969C20.8252 11.2969 21.1406 11.6123 21.1406 12C21.1406 12.3877 20.8252 12.7031 20.4375 12.7031C20.0498 12.7031 19.7344 12.3877 19.7344 12C19.7344 11.6123 20.0498 11.2969 20.4375 11.2969ZM22.5938 2.8125H21.1875V1.40625H22.5938V2.8125Z" fill="#667085"/>
<path d="M18.21 14.4225L12.585 5.985C12.5848 5.98472 12.5846 5.98444 12.5844 5.98411C12.5824 5.98111 12.5802 5.97825 12.5781 5.9753C12.5684 5.96128 12.5583 5.94778 12.5477 5.93461C12.2514 5.56645 11.6872 5.5913 11.4219 5.9753C11.4198 5.97825 11.4176 5.98111 11.4156 5.98411C11.4154 5.98444 11.4152 5.98467 11.415 5.985L5.79 14.4225C5.60404 14.7014 5.64084 15.0727 5.87784 15.3097C7.28067 16.7125 8.17354 18.5463 8.41678 20.5082C8.3076 20.5965 8.20218 20.691 8.10225 20.7932C7.44182 21.4688 7.07812 22.358 7.07812 23.2969C7.07812 23.6852 7.39293 24 7.78125 24H16.2187C16.6071 24 16.9219 23.6852 16.9219 23.2969C16.9219 22.358 16.5582 21.4688 15.8978 20.7932C15.7978 20.6909 15.6924 20.5964 15.5832 20.5081C15.8264 18.5461 16.7193 16.7124 18.1221 15.3097C18.3592 15.0727 18.3959 14.7013 18.21 14.4225ZM12 14.1094C12.3877 14.1094 12.7031 14.4248 12.7031 14.8125C12.7031 15.2002 12.3877 15.5156 12 15.5156C11.6123 15.5156 11.2969 15.2002 11.2969 14.8125C11.2969 14.4248 11.6123 14.1094 12 14.1094ZM8.60428 22.5937C8.89682 21.7578 9.68985 21.1406 10.5937 21.1406H13.4062C14.3101 21.1406 15.1032 21.7578 15.3957 22.5937H8.60428ZM14.2615 19.8414C13.9849 19.7708 13.6982 19.7344 13.4062 19.7344H10.5937C10.3018 19.7344 10.0151 19.7708 9.73851 19.8414C9.40945 17.9463 8.55487 16.1748 7.27054 14.7368L11.2969 8.69728V12.8241C10.4785 13.1144 9.89062 13.8959 9.89062 14.8125C9.89062 15.9757 10.8369 16.9219 12 16.9219C13.1631 16.9219 14.1094 15.9757 14.1094 14.8125C14.1094 13.8959 13.5215 13.1144 12.7031 12.8241V8.69728L16.7295 14.7368C15.4451 16.1747 14.5905 17.9462 14.2615 19.8414Z" fill="#667085"/>
</g>
<defs>
<clipPath id="clip0_11_1921">
<rect width="24" height="24" fill="white"/>
</clipPath>
</defs>
</svg>
