<svg width="20" height="20" viewBox="0 0 20 20" fill="none" xmlns="http://www.w3.org/2000/svg">
<path d="M9.99935 18.9583C9.34935 18.9583 8.71602 18.625 8.28268 18.0417L7.44102 16.9167C7.26602 16.6833 7.03268 16.55 6.78268 16.5333C6.53268 16.525 6.28268 16.6333 6.08268 16.8417L5.60768 16.4167L6.06602 16.8417C4.86602 18.125 3.94102 18.025 3.49935 17.85C3.04935 17.675 2.29102 17.1 2.29102 15.25V5.86666C2.29102 2.16666 3.35768 1.04166 6.84935 1.04166H13.1493C16.641 1.04166 17.7077 2.16666 17.7077 5.86666V15.25C17.7077 17.0917 16.9493 17.6667 16.4993 17.85C16.0577 18.025 15.141 18.125 13.9327 16.8417C13.7327 16.625 13.491 16.5083 13.2243 16.5333C12.9743 16.55 12.7327 16.6833 12.5577 16.9167L11.716 18.0417C11.2827 18.625 10.6493 18.9583 9.99935 18.9583ZM6.73268 15.275C6.76602 15.275 6.80768 15.275 6.84102 15.275C7.45768 15.3083 8.04102 15.6333 8.43268 16.1583L9.27435 17.2833C9.68268 17.825 10.3077 17.825 10.716 17.2833L11.5577 16.1583C11.9577 15.6333 12.5327 15.3083 13.1577 15.275C13.7743 15.2417 14.391 15.5 14.841 15.9833C15.4743 16.6583 15.891 16.7417 16.0327 16.6833C16.2327 16.6 16.4493 16.1167 16.4493 15.25V5.86666C16.4493 2.85833 15.9243 2.29166 13.141 2.29166H6.84935C4.06602 2.29166 3.54102 2.85833 3.54102 5.86666V15.25C3.54102 16.125 3.75768 16.6083 3.95768 16.6833C4.09935 16.7417 4.51602 16.6583 5.14935 15.9833C5.59935 15.525 6.15768 15.275 6.73268 15.275Z" fill="#667085"/>
<path d="M13.3327 6.45834H6.66602C6.32435 6.45834 6.04102 6.175 6.04102 5.83334C6.04102 5.49167 6.32435 5.20834 6.66602 5.20834H13.3327C13.6743 5.20834 13.9577 5.49167 13.9577 5.83334C13.9577 6.175 13.6743 6.45834 13.3327 6.45834Z" fill="#667085"/>
<path d="M12.5 9.79166H7.5C7.15833 9.79166 6.875 9.50833 6.875 9.16666C6.875 8.825 7.15833 8.54166 7.5 8.54166H12.5C12.8417 8.54166 13.125 8.825 13.125 9.16666C13.125 9.50833 12.8417 9.79166 12.5 9.79166Z" fill="#667085"/>
</svg>
