<svg width="24" height="24" viewBox="0 0 24 24" fill="none" xmlns="http://www.w3.org/2000/svg">
<path d="M12 22.75C11.3 22.75 10.59 22.48 10.06 21.95L8.35001 20.26C7.92001 19.84 7.35999 19.61 6.75999 19.61H6C3.93 19.61 2.25 17.94 2.25 15.89V4.97998C2.25 2.92998 3.93 1.26001 6 1.26001H18C20.07 1.26001 21.75 2.92998 21.75 4.97998V15.89C21.75 17.94 20.07 19.61 18 19.61H17.24C16.64 19.61 16.07 19.84 15.65 20.26L13.94 21.95C13.41 22.48 12.7 22.75 12 22.75ZM6 2.75C4.76 2.75 3.75 3.74997 3.75 4.96997V15.88C3.75 17.11 4.76 18.1 6 18.1H6.75999C7.75999 18.1 8.7 18.4899 9.41 19.1899L11.12 20.88C11.61 21.36 12.4 21.36 12.89 20.88L14.6 19.1899C15.31 18.4899 16.25 18.1 17.25 18.1H18C19.24 18.1 20.25 17.1 20.25 15.88V4.96997C20.25 3.73997 19.24 2.75 18 2.75H6Z" fill="#667085"/>
<path d="M10.3783 14.51H7.69827C7.25827 14.51 6.84827 14.2999 6.58827 13.9399C6.33827 13.5999 6.27827 13.18 6.39827 12.78C6.74827 11.71 7.60827 11.13 8.36827 10.61C9.16827 10.07 9.61827 9.73002 9.61827 9.15002C9.61827 8.63002 9.19827 8.20996 8.67827 8.20996C8.15827 8.20996 7.73828 8.63002 7.73828 9.15002C7.73828 9.56002 7.39828 9.90002 6.98828 9.90002C6.57828 9.90002 6.23828 9.56002 6.23828 9.15002C6.23828 7.81002 7.32827 6.70996 8.67827 6.70996C10.0283 6.70996 11.1183 7.80002 11.1183 9.15002C11.1183 10.56 10.0583 11.28 9.20828 11.86C8.67828 12.22 8.17827 12.56 7.92827 13.01H10.3683C10.7783 13.01 11.1183 13.35 11.1183 13.76C11.1183 14.17 10.7883 14.51 10.3783 14.51Z" fill="#667085"/>
<path d="M16.0389 14.5101C15.6289 14.5101 15.2889 14.1701 15.2889 13.7601V13.07H13.3289C13.3289 13.07 13.3289 13.07 13.3189 13.07C12.8289 13.07 12.3789 12.8101 12.1289 12.3901C11.8789 11.9601 11.8789 11.4301 12.1289 11.0101C12.8089 9.84007 13.5989 8.51003 14.3189 7.35003C14.6389 6.84003 15.2489 6.61008 15.8189 6.77008C16.3889 6.94008 16.7889 7.46012 16.7789 8.06012V11.58H16.9989C17.4089 11.58 17.7489 11.92 17.7489 12.33C17.7489 12.74 17.4089 13.08 16.9989 13.08H16.7889V13.7701C16.7889 14.1801 16.4589 14.5101 16.0389 14.5101ZM15.2889 8.64007C14.6989 9.60007 14.0889 10.63 13.5389 11.57H15.2889V8.64007Z" fill="#667085"/>
</svg>
