<svg width="16" height="16" viewBox="0 0 16 16" fill="none" xmlns="http://www.w3.org/2000/svg">
<path d="M11.7471 6.41333H8.24707C7.97374 6.41333 7.74707 6.18666 7.74707 5.91333C7.74707 5.64 7.97374 5.41333 8.24707 5.41333H11.7471C12.0204 5.41333 12.2471 5.64 12.2471 5.91333C12.2471 6.18666 12.0271 6.41333 11.7471 6.41333Z" fill="#475467"/>
<path d="M4.74638 6.91999C4.61971 6.91999 4.49305 6.87333 4.39305 6.77333L3.89305 6.27333C3.69971 6.07999 3.69971 5.76 3.89305 5.56666C4.08638 5.37333 4.40638 5.37333 4.59971 5.56666L4.74638 5.71333L5.89305 4.56666C6.08638 4.37333 6.40638 4.37333 6.59971 4.56666C6.79305 4.75999 6.79305 5.07999 6.59971 5.27333L5.09971 6.77333C5.00638 6.86666 4.87971 6.91999 4.74638 6.91999Z" fill="#475467"/>
<path d="M11.7471 11.08H8.24707C7.97374 11.08 7.74707 10.8533 7.74707 10.58C7.74707 10.3067 7.97374 10.08 8.24707 10.08H11.7471C12.0204 10.08 12.2471 10.3067 12.2471 10.58C12.2471 10.8533 12.0271 11.08 11.7471 11.08Z" fill="#475467"/>
<path d="M4.74638 11.5867C4.61971 11.5867 4.49305 11.54 4.39305 11.44L3.89305 10.94C3.69971 10.7467 3.69971 10.4267 3.89305 10.2333C4.08638 10.04 4.40638 10.04 4.59971 10.2333L4.74638 10.38L5.89305 9.23333C6.08638 9.04 6.40638 9.04 6.59971 9.23333C6.79305 9.42667 6.79305 9.74667 6.59971 9.94L5.09971 11.44C5.00638 11.5333 4.87971 11.5867 4.74638 11.5867Z" fill="#475467"/>
<path d="M9.99967 15.1667H5.99967C2.37967 15.1667 0.833008 13.62 0.833008 10V6C0.833008 2.38 2.37967 0.833328 5.99967 0.833328H9.99967C13.6197 0.833328 15.1663 2.38 15.1663 6V10C15.1663 13.62 13.6197 15.1667 9.99967 15.1667ZM5.99967 1.83333C2.92634 1.83333 1.83301 2.92666 1.83301 6V10C1.83301 13.0733 2.92634 14.1667 5.99967 14.1667H9.99967C13.073 14.1667 14.1663 13.0733 14.1663 10V6C14.1663 2.92666 13.073 1.83333 9.99967 1.83333H5.99967Z" fill="#475467"/>
</svg>
