<svg width="20" height="20" viewBox="0 0 20 20" fill="none" xmlns="http://www.w3.org/2000/svg">
<path d="M13.9086 18.9583H6.09193C2.61693 18.9583 1.55859 17.9 1.55859 14.425V14.0417C1.55859 13.7 1.84193 13.4167 2.18359 13.4167C2.91693 13.4167 3.51693 12.8167 3.51693 12.0833C3.51693 11.35 2.91693 10.75 2.18359 10.75C1.84193 10.75 1.55859 10.4667 1.55859 10.125V9.74167C1.55859 6.26667 2.61693 5.20834 6.09193 5.20834H13.9086C17.3836 5.20834 18.4419 6.26667 18.4419 9.74167V10.525C18.4419 10.8667 18.1586 11.15 17.8169 11.15C17.0836 11.15 16.4836 11.75 16.4836 12.4833C16.4836 13.2167 17.0836 13.8083 17.8169 13.8083C18.1586 13.8083 18.4419 14.0917 18.4419 14.4333C18.4336 17.9 17.3753 18.9583 13.9086 18.9583ZM2.81693 14.5917C2.83359 17.2417 3.35859 17.7083 6.10026 17.7083H13.9169C16.5169 17.7083 17.1169 17.2833 17.1919 14.975C16.0753 14.6917 15.2419 13.6833 15.2419 12.475C15.2419 11.2667 16.0753 10.25 17.2003 9.96667V9.73334C17.2003 6.94167 16.7086 6.45 13.9169 6.45H6.09193C3.35859 6.45 2.83359 6.925 2.80859 9.56667C3.93359 9.85 4.76693 10.8667 4.76693 12.075C4.76693 13.2833 3.93359 14.3083 2.81693 14.5917Z" fill="#667085"/>
<path d="M8.33398 8.54167C7.99232 8.54167 7.70898 8.25834 7.70898 7.91667V5.83334C7.70898 5.49167 7.99232 5.20834 8.33398 5.20834C8.67565 5.20834 8.95898 5.49167 8.95898 5.83334V7.91667C8.95898 8.25834 8.67565 8.54167 8.33398 8.54167Z" fill="#667085"/>
<path d="M8.33398 14.1C7.99232 14.1 7.70898 13.8167 7.70898 13.475V10.7C7.70898 10.3583 7.99232 10.075 8.33398 10.075C8.67565 10.075 8.95898 10.3583 8.95898 10.7V13.475C8.95898 13.8167 8.67565 14.1 8.33398 14.1Z" fill="#667085"/>
<path d="M8.33398 18.9583C7.99232 18.9583 7.70898 18.675 7.70898 18.3333V16.25C7.70898 15.9083 7.99232 15.625 8.33398 15.625C8.67565 15.625 8.95898 15.9083 8.95898 16.25V18.3333C8.95898 18.675 8.67565 18.9583 8.33398 18.9583Z" fill="#667085"/>
<path d="M13.6091 6.45833H6.03413C5.78413 6.45833 5.5508 6.30833 5.45913 6.075C5.36746 5.84166 5.41746 5.56666 5.59246 5.39166L8.03413 2.95C10.2841 0.699997 11.6591 0.699997 13.9008 2.95L14.4008 3.45C14.5175 3.56666 14.5841 3.725 14.5841 3.89166C14.5841 4.05833 14.5175 4.21666 14.4008 4.33333C14.0675 4.66666 13.9758 5.15833 14.1675 5.58333C14.2591 5.775 14.2425 6 14.1258 6.18333C14.0175 6.35 13.8175 6.45833 13.6091 6.45833ZM7.54246 5.20833H12.8175C12.8008 4.76666 12.9091 4.325 13.1341 3.94166L13.0258 3.83333C11.2841 2.09166 10.6675 2.09166 8.9258 3.83333L7.54246 5.20833Z" fill="#667085"/>
</svg>
