<svg width="20" height="20" viewBox="0 0 20 20" fill="none" xmlns="http://www.w3.org/2000/svg">
<path d="M12.5 18.3333H7.5C4.73077 18.3333 4.65385 16.6279 4.57692 15.0775L4.03846 5.85271L3.11538 5.93023C2.80769 5.93023 2.5 5.69768 2.5 5.3876C2.5 5.07752 2.73077 4.76744 3.03846 4.76744L4.57692 4.6124C5.26923 4.53489 6.03846 4.45737 6.73077 4.45737L6.88462 3.44961C7.03846 2.67442 7.19231 1.66667 8.96154 1.66667H10.9615C12.7308 1.66667 12.9615 2.75194 13.0385 3.44961L13.2692 4.45737C14.5 4.53489 15.7308 4.6124 16.9615 4.76744C17.2692 4.76744 17.5 5.07752 17.5 5.3876C17.5 5.69768 17.1923 5.93023 16.8846 5.93023C16.5769 5.93023 16.2692 5.85271 15.9615 5.85271L15.5 15.155C15.3462 16.6279 15.2692 18.3333 12.5 18.3333ZM5.19231 5.69768L5.65385 15C5.73077 16.5504 5.80769 17.1705 7.42308 17.1705H12.5C14.1154 17.1705 14.1923 16.5504 14.2692 15L14.7308 5.69768C11.5769 5.46512 8.42308 5.3876 5.19231 5.69768ZM9.19231 4.37985C10.1154 4.37985 11.1154 4.37985 12.0385 4.45737L11.8846 3.68217C11.8077 2.9845 11.7308 2.90698 10.9615 2.90698H8.96154C8.11538 2.90698 8.11538 2.9845 8.03846 3.68217L7.88462 4.37985C8.34615 4.37985 8.80769 4.37985 9.19231 4.37985ZM11.2692 14.0698H8.73077C8.42308 14.0698 8.11538 13.8372 8.11538 13.4496C8.11538 13.062 8.34615 12.8295 8.73077 12.8295H11.2692C11.5769 12.8295 11.8846 13.062 11.8846 13.4496C11.8846 13.8372 11.5769 14.0698 11.2692 14.0698ZM11.9615 10.969H8.11538C7.80769 10.969 7.5 10.7364 7.5 10.3488C7.5 9.96124 7.73077 9.72868 8.11538 9.72868H11.9615C12.2692 9.72868 12.5769 9.96124 12.5769 10.3488C12.5769 10.7364 12.2692 10.969 11.9615 10.969Z" fill="#667085"/>
</svg>
