<svg width="20" height="20" viewBox="0 0 20 20" fill="none" xmlns="http://www.w3.org/2000/svg">
<path d="M12.5005 18.9583H7.50053C6.40053 18.9583 5.48386 18.85 4.70886 18.6167C4.42553 18.5334 4.24219 18.2583 4.25886 17.9667C4.46719 15.475 6.99219 13.5166 10.0005 13.5166C13.0089 13.5166 15.5255 15.4667 15.7422 17.9667C15.7672 18.2667 15.5839 18.5334 15.2922 18.6167C14.5172 18.85 13.6005 18.9583 12.5005 18.9583ZM5.60053 17.55C6.15053 17.6583 6.77553 17.7083 7.50053 17.7083H12.5005C13.2255 17.7083 13.8505 17.6583 14.4005 17.55C13.9589 15.95 12.1339 14.7666 10.0005 14.7666C7.86719 14.7666 6.0422 15.95 5.60053 17.55Z" fill="#667085"/>
<path d="M12.4993 1.66667H7.49935C3.33268 1.66667 1.66602 3.33333 1.66602 7.5V12.5C1.66602 15.65 2.61602 17.375 4.88268 18.0167C5.06602 15.85 7.29102 14.1416 9.99935 14.1416C12.7077 14.1416 14.9327 15.85 15.116 18.0167C17.3827 17.375 18.3327 15.65 18.3327 12.5V7.5C18.3327 3.33333 16.666 1.66667 12.4993 1.66667ZM9.99935 11.8083C8.34935 11.8083 7.01601 10.4667 7.01601 8.81668C7.01601 7.16668 8.34935 5.83333 9.99935 5.83333C11.6493 5.83333 12.9827 7.16668 12.9827 8.81668C12.9827 10.4667 11.6493 11.8083 9.99935 11.8083Z" stroke="#667085" stroke-width="1.5" stroke-linecap="round" stroke-linejoin="round"/>
<path d="M9.99896 12.4333C8.00729 12.4333 6.39062 10.8083 6.39062 8.81668C6.39062 6.82501 8.00729 5.20833 9.99896 5.20833C11.9906 5.20833 13.6073 6.82501 13.6073 8.81668C13.6073 10.8083 11.9906 12.4333 9.99896 12.4333ZM9.99896 6.45833C8.69896 6.45833 7.64063 7.51668 7.64063 8.81668C7.64063 10.125 8.69896 11.1833 9.99896 11.1833C11.299 11.1833 12.3573 10.125 12.3573 8.81668C12.3573 7.51668 11.299 6.45833 9.99896 6.45833Z" fill="#667085"/>
</svg>
