<svg width="16" height="16" viewBox="0 0 16 16" fill="none" xmlns="http://www.w3.org/2000/svg">
<path d="M5.58691 8L7.19358 9.61334L10.4136 6.38667" stroke="#475467" stroke-width="1.5" stroke-linecap="round" stroke-linejoin="round"/>
<path d="M7.16691 1.63333C7.62691 1.24 8.38025 1.24 8.84691 1.63333L9.90025 2.54C10.1002 2.71333 10.4736 2.85333 10.7402 2.85333H11.8736C12.5802 2.85333 13.1602 3.43333 13.1602 4.14V5.27333C13.1602 5.53333 13.3002 5.91333 13.4736 6.11333L14.3802 7.16667C14.7736 7.62667 14.7736 8.38 14.3802 8.84667L13.4736 9.9C13.3002 10.1 13.1602 10.4733 13.1602 10.74V11.8733C13.1602 12.58 12.5802 13.16 11.8736 13.16H10.7402C10.4802 13.16 10.1002 13.3 9.90025 13.4733L8.84691 14.38C8.38691 14.7733 7.63358 14.7733 7.16691 14.38L6.11358 13.4733C5.91358 13.3 5.54025 13.16 5.27358 13.16H4.12025C3.41358 13.16 2.83358 12.58 2.83358 11.8733V10.7333C2.83358 10.4733 2.69358 10.1 2.52691 9.9L1.62691 8.84C1.24025 8.38 1.24025 7.63333 1.62691 7.17333L2.52691 6.11333C2.69358 5.91333 2.83358 5.54 2.83358 5.28V4.13333C2.83358 3.42667 3.41358 2.84667 4.12025 2.84667H5.27358C5.53358 2.84667 5.91358 2.70667 6.11358 2.53333L7.16691 1.63333Z" stroke="#475467" stroke-width="1.5" stroke-linecap="round" stroke-linejoin="round"/>
</svg>
